# xmcd CD database file
#
# Track frame offsets:
#	150
#	12991
#	25131
#	40246
#	52328
#	65138
#	75889
#	91991
#	105822
#	108555
#	120268
#	131696
#	143182
#	147103
#	159408
#	169184
#	171162
#	181162
#
# Disc length: 2521 seconds
#
# Revision: 0
# Processed by: cddbd v1.5.2PL0 Copyright (c) Steve Scherf et al.
# Submitted via: CDex 1.51
#
DISCID=e809d712
DTITLE=April Orchestra - April Orchestra, Vol. 34
DYEAR=1980
DGENRE=Jazz
TTITLE0=Big band d'april
TTITLE1=Big band en flirt
TTITLE2=Big Band Retro
TTITLE3=Rumania
TTITLE4=Sale temps pour une valse
TTITLE5=Flute en reve
TTITLE6=Ca 'cool' de source
TTITLE7=Gringo
TTITLE8=Intropub
TTITLE9=Big Band Cool Part 1
TTITLE10=Big Band Cool Part 2
TTITLE11=Mi-flute mi-raison
TTITLE12=Miniatura
TTITLE13=Méli mélo en flute
TTITLE14=Clopin Klapka
TTITLE15=Petit piano dingue
TTITLE16=Jazzy Trumpet Blues
TTITLE17=Daddy's Flute
EXTD=YEAR: 1980
EXTT0=
EXTT1=
EXTT2=
EXTT3=
EXTT4=
EXTT5=
EXTT6=
EXTT7=
EXTT8=
EXTT9=
EXTT10=
EXTT11=
EXTT12=
EXTT13=
EXTT14=
EXTT15=
EXTT16=
EXTT17=
PLAYORDER=
